<mxfile host="app.diagrams.net" modified="2020-06-22T21:41:00.754Z" agent="5.0 (Macintosh; Intel Mac OS X 10_15_1) AppleWebKit/537.36 (KHTML, like Gecko) Chrome/83.0.4103.106 Safari/537.36" etag="NSpVNLpaXOBPF4ZHdnak" version="13.3.0" type="github" pages="9">
  <diagram id="h4KtKgRzYph5OhGiSQl3" name="01 - full">
    <mxGraphModel dx="1036" dy="510" grid="1" gridSize="10" guides="1" tooltips="1" connect="1" arrows="1" fold="1" page="1" pageScale="1" pageWidth="1920" pageHeight="1200" math="0" shadow="0">
      <root>
        <mxCell id="0" />
        <mxCell id="1" parent="0" />
        <mxCell id="UDn-PatQlqT6txf8OOJC-1" value="" style="strokeWidth=1;shadow=0;dashed=0;align=center;html=1;shape=mxgraph.mockup.containers.browserWindow;rSize=0;strokeColor=#666666;strokeColor2=#008cff;strokeColor3=#c4c4c4;mainText=,;recursiveResize=0;" vertex="1" parent="1">
          <mxGeometry x="390" y="170" width="610" height="430" as="geometry" />
        </mxCell>
        <mxCell id="UDn-PatQlqT6txf8OOJC-2" value="Page 1" style="strokeWidth=1;shadow=0;dashed=0;align=center;html=1;shape=mxgraph.mockup.containers.anchor;fontSize=17;fontColor=#666666;align=left;" vertex="1" parent="UDn-PatQlqT6txf8OOJC-1">
          <mxGeometry x="60" y="12" width="110" height="26" as="geometry" />
        </mxCell>
        <mxCell id="UDn-PatQlqT6txf8OOJC-3" value="localhost" style="strokeWidth=1;shadow=0;dashed=0;align=center;html=1;shape=mxgraph.mockup.containers.anchor;rSize=0;fontSize=17;fontColor=#666666;align=left;" vertex="1" parent="UDn-PatQlqT6txf8OOJC-1">
          <mxGeometry x="130" y="60" width="250" height="26" as="geometry" />
        </mxCell>
        <mxCell id="UDn-PatQlqT6txf8OOJC-8" value="&lt;b&gt;&amp;nbsp; V&amp;nbsp; What is React?&lt;/b&gt;&lt;br&gt;&lt;br&gt;&lt;blockquote style=&quot;margin: 0 0 0 40px ; border: none ; padding: 0px&quot;&gt;React is a Javascript front-end library. It is used to show content to users and handle user events.&lt;br&gt;Engineers use React to create reusable&amp;nbsp; &amp;nbsp; &amp;nbsp; &amp;nbsp; &amp;nbsp; &amp;nbsp; components&lt;/blockquote&gt;" style="rounded=0;whiteSpace=wrap;html=1;align=left;" vertex="1" parent="UDn-PatQlqT6txf8OOJC-1">
          <mxGeometry x="40" y="170" width="300" height="130" as="geometry" />
        </mxCell>
        <mxCell id="UDn-PatQlqT6txf8OOJC-9" value="&amp;nbsp; &amp;gt;&amp;nbsp; How do we show content with React?" style="rounded=0;whiteSpace=wrap;html=1;align=left;" vertex="1" parent="UDn-PatQlqT6txf8OOJC-1">
          <mxGeometry x="40" y="300" width="300" height="40" as="geometry" />
        </mxCell>
        <mxCell id="UDn-PatQlqT6txf8OOJC-10" value="&amp;nbsp; &amp;gt;&amp;nbsp; Why is React useful for engineers?" style="rounded=0;whiteSpace=wrap;html=1;align=left;" vertex="1" parent="UDn-PatQlqT6txf8OOJC-1">
          <mxGeometry x="40" y="340" width="300" height="40" as="geometry" />
        </mxCell>
        <mxCell id="UDn-PatQlqT6txf8OOJC-11" value="" style="endArrow=none;html=1;" edge="1" parent="UDn-PatQlqT6txf8OOJC-1">
          <mxGeometry width="50" height="50" relative="1" as="geometry">
            <mxPoint x="40" y="150" as="sourcePoint" />
            <mxPoint x="570" y="150" as="targetPoint" />
          </mxGeometry>
        </mxCell>
        <mxCell id="UDn-PatQlqT6txf8OOJC-12" value="Accordion" style="text;html=1;strokeColor=none;fillColor=none;align=center;verticalAlign=middle;whiteSpace=wrap;rounded=0;" vertex="1" parent="UDn-PatQlqT6txf8OOJC-1">
          <mxGeometry x="41" y="120" width="59" height="20" as="geometry" />
        </mxCell>
        <mxCell id="UDn-PatQlqT6txf8OOJC-13" value="Dropdown" style="text;html=1;strokeColor=none;fillColor=none;align=center;verticalAlign=middle;whiteSpace=wrap;rounded=0;" vertex="1" parent="UDn-PatQlqT6txf8OOJC-1">
          <mxGeometry x="120" y="120" width="59" height="20" as="geometry" />
        </mxCell>
        <mxCell id="UDn-PatQlqT6txf8OOJC-14" value="Translate" style="text;html=1;strokeColor=none;fillColor=none;align=center;verticalAlign=middle;whiteSpace=wrap;rounded=0;" vertex="1" parent="UDn-PatQlqT6txf8OOJC-1">
          <mxGeometry x="200" y="120" width="59" height="20" as="geometry" />
        </mxCell>
        <mxCell id="UDn-PatQlqT6txf8OOJC-15" value="" style="strokeWidth=1;shadow=0;dashed=0;align=center;html=1;shape=mxgraph.mockup.containers.browserWindow;rSize=0;strokeColor=#666666;strokeColor2=#008cff;strokeColor3=#c4c4c4;mainText=,;recursiveResize=0;" vertex="1" parent="1">
          <mxGeometry x="1070" y="170" width="610" height="430" as="geometry" />
        </mxCell>
        <mxCell id="UDn-PatQlqT6txf8OOJC-16" value="Page 1" style="strokeWidth=1;shadow=0;dashed=0;align=center;html=1;shape=mxgraph.mockup.containers.anchor;fontSize=17;fontColor=#666666;align=left;" vertex="1" parent="UDn-PatQlqT6txf8OOJC-15">
          <mxGeometry x="60" y="12" width="110" height="26" as="geometry" />
        </mxCell>
        <mxCell id="UDn-PatQlqT6txf8OOJC-17" value="localhost/dropdown" style="strokeWidth=1;shadow=0;dashed=0;align=center;html=1;shape=mxgraph.mockup.containers.anchor;rSize=0;fontSize=17;fontColor=#666666;align=left;" vertex="1" parent="UDn-PatQlqT6txf8OOJC-15">
          <mxGeometry x="130" y="60" width="250" height="26" as="geometry" />
        </mxCell>
        <mxCell id="UDn-PatQlqT6txf8OOJC-21" value="" style="endArrow=none;html=1;" edge="1" parent="UDn-PatQlqT6txf8OOJC-15">
          <mxGeometry width="50" height="50" relative="1" as="geometry">
            <mxPoint x="40" y="150" as="sourcePoint" />
            <mxPoint x="570" y="150" as="targetPoint" />
          </mxGeometry>
        </mxCell>
        <mxCell id="UDn-PatQlqT6txf8OOJC-22" value="Accordion" style="text;html=1;strokeColor=none;fillColor=none;align=center;verticalAlign=middle;whiteSpace=wrap;rounded=0;" vertex="1" parent="UDn-PatQlqT6txf8OOJC-15">
          <mxGeometry x="41" y="120" width="59" height="20" as="geometry" />
        </mxCell>
        <mxCell id="UDn-PatQlqT6txf8OOJC-23" value="Dropdown" style="text;html=1;strokeColor=none;fillColor=none;align=center;verticalAlign=middle;whiteSpace=wrap;rounded=0;" vertex="1" parent="UDn-PatQlqT6txf8OOJC-15">
          <mxGeometry x="120" y="120" width="59" height="20" as="geometry" />
        </mxCell>
        <mxCell id="UDn-PatQlqT6txf8OOJC-24" value="Translate" style="text;html=1;strokeColor=none;fillColor=none;align=center;verticalAlign=middle;whiteSpace=wrap;rounded=0;" vertex="1" parent="UDn-PatQlqT6txf8OOJC-15">
          <mxGeometry x="200" y="120" width="59" height="20" as="geometry" />
        </mxCell>
        <mxCell id="UDn-PatQlqT6txf8OOJC-25" value="" style="rounded=0;whiteSpace=wrap;html=1;" vertex="1" parent="UDn-PatQlqT6txf8OOJC-15">
          <mxGeometry x="40" y="195" width="219" height="35" as="geometry" />
        </mxCell>
        <mxCell id="UDn-PatQlqT6txf8OOJC-26" value="Select Color" style="text;html=1;strokeColor=none;fillColor=none;align=left;verticalAlign=middle;whiteSpace=wrap;rounded=0;" vertex="1" parent="UDn-PatQlqT6txf8OOJC-15">
          <mxGeometry x="40" y="170" width="100" height="20" as="geometry" />
        </mxCell>
        <mxCell id="UDn-PatQlqT6txf8OOJC-27" value="" style="triangle;whiteSpace=wrap;html=1;align=left;rotation=90;" vertex="1" parent="UDn-PatQlqT6txf8OOJC-15">
          <mxGeometry x="230" y="202.5" width="20" height="20" as="geometry" />
        </mxCell>
        <mxCell id="UDn-PatQlqT6txf8OOJC-28" value="Red" style="text;html=1;strokeColor=none;fillColor=none;align=left;verticalAlign=middle;whiteSpace=wrap;rounded=0;" vertex="1" parent="UDn-PatQlqT6txf8OOJC-15">
          <mxGeometry x="50" y="202.5" width="100" height="20" as="geometry" />
        </mxCell>
        <mxCell id="UDn-PatQlqT6txf8OOJC-29" value="This text is red!" style="text;html=1;strokeColor=none;fillColor=none;align=left;verticalAlign=middle;whiteSpace=wrap;rounded=0;fontStyle=1;fontColor=#FF0000;" vertex="1" parent="UDn-PatQlqT6txf8OOJC-15">
          <mxGeometry x="40" y="256" width="100" height="20" as="geometry" />
        </mxCell>
        <mxCell id="UDn-PatQlqT6txf8OOJC-30" value="" style="strokeWidth=1;shadow=0;dashed=0;align=center;html=1;shape=mxgraph.mockup.containers.browserWindow;rSize=0;strokeColor=#666666;strokeColor2=#008cff;strokeColor3=#c4c4c4;mainText=,;recursiveResize=0;" vertex="1" parent="1">
          <mxGeometry x="1740" y="170" width="610" height="430" as="geometry" />
        </mxCell>
        <mxCell id="UDn-PatQlqT6txf8OOJC-31" value="Page 1" style="strokeWidth=1;shadow=0;dashed=0;align=center;html=1;shape=mxgraph.mockup.containers.anchor;fontSize=17;fontColor=#666666;align=left;" vertex="1" parent="UDn-PatQlqT6txf8OOJC-30">
          <mxGeometry x="60" y="12" width="110" height="26" as="geometry" />
        </mxCell>
        <mxCell id="UDn-PatQlqT6txf8OOJC-32" value="localhost/translate" style="strokeWidth=1;shadow=0;dashed=0;align=center;html=1;shape=mxgraph.mockup.containers.anchor;rSize=0;fontSize=17;fontColor=#666666;align=left;" vertex="1" parent="UDn-PatQlqT6txf8OOJC-30">
          <mxGeometry x="130" y="60" width="250" height="26" as="geometry" />
        </mxCell>
        <mxCell id="UDn-PatQlqT6txf8OOJC-33" value="" style="endArrow=none;html=1;" edge="1" parent="UDn-PatQlqT6txf8OOJC-30">
          <mxGeometry width="50" height="50" relative="1" as="geometry">
            <mxPoint x="40" y="150" as="sourcePoint" />
            <mxPoint x="570" y="150" as="targetPoint" />
          </mxGeometry>
        </mxCell>
        <mxCell id="UDn-PatQlqT6txf8OOJC-34" value="Accordion" style="text;html=1;strokeColor=none;fillColor=none;align=center;verticalAlign=middle;whiteSpace=wrap;rounded=0;" vertex="1" parent="UDn-PatQlqT6txf8OOJC-30">
          <mxGeometry x="41" y="120" width="59" height="20" as="geometry" />
        </mxCell>
        <mxCell id="UDn-PatQlqT6txf8OOJC-35" value="Dropdown" style="text;html=1;strokeColor=none;fillColor=none;align=center;verticalAlign=middle;whiteSpace=wrap;rounded=0;" vertex="1" parent="UDn-PatQlqT6txf8OOJC-30">
          <mxGeometry x="120" y="120" width="59" height="20" as="geometry" />
        </mxCell>
        <mxCell id="UDn-PatQlqT6txf8OOJC-36" value="Translate" style="text;html=1;strokeColor=none;fillColor=none;align=center;verticalAlign=middle;whiteSpace=wrap;rounded=0;" vertex="1" parent="UDn-PatQlqT6txf8OOJC-30">
          <mxGeometry x="200" y="120" width="59" height="20" as="geometry" />
        </mxCell>
        <mxCell id="UDn-PatQlqT6txf8OOJC-37" value="" style="rounded=0;whiteSpace=wrap;html=1;" vertex="1" parent="UDn-PatQlqT6txf8OOJC-30">
          <mxGeometry x="41" y="265" width="219" height="35" as="geometry" />
        </mxCell>
        <mxCell id="UDn-PatQlqT6txf8OOJC-38" value="Select Language" style="text;html=1;strokeColor=none;fillColor=none;align=left;verticalAlign=middle;whiteSpace=wrap;rounded=0;" vertex="1" parent="UDn-PatQlqT6txf8OOJC-30">
          <mxGeometry x="41" y="240" width="100" height="20" as="geometry" />
        </mxCell>
        <mxCell id="UDn-PatQlqT6txf8OOJC-39" value="" style="triangle;whiteSpace=wrap;html=1;align=left;rotation=90;" vertex="1" parent="UDn-PatQlqT6txf8OOJC-30">
          <mxGeometry x="231" y="272.5" width="20" height="20" as="geometry" />
        </mxCell>
        <mxCell id="UDn-PatQlqT6txf8OOJC-40" value="Spanish" style="text;html=1;strokeColor=none;fillColor=none;align=left;verticalAlign=middle;whiteSpace=wrap;rounded=0;" vertex="1" parent="UDn-PatQlqT6txf8OOJC-30">
          <mxGeometry x="51" y="272.5" width="100" height="20" as="geometry" />
        </mxCell>
        <mxCell id="UDn-PatQlqT6txf8OOJC-43" value="" style="rounded=0;whiteSpace=wrap;html=1;" vertex="1" parent="UDn-PatQlqT6txf8OOJC-30">
          <mxGeometry x="41" y="185" width="219" height="35" as="geometry" />
        </mxCell>
        <mxCell id="UDn-PatQlqT6txf8OOJC-44" value="Enter Text" style="text;html=1;strokeColor=none;fillColor=none;align=left;verticalAlign=middle;whiteSpace=wrap;rounded=0;" vertex="1" parent="UDn-PatQlqT6txf8OOJC-30">
          <mxGeometry x="41" y="160" width="100" height="20" as="geometry" />
        </mxCell>
        <mxCell id="UDn-PatQlqT6txf8OOJC-46" value="Hi There" style="text;html=1;strokeColor=none;fillColor=none;align=left;verticalAlign=middle;whiteSpace=wrap;rounded=0;" vertex="1" parent="UDn-PatQlqT6txf8OOJC-30">
          <mxGeometry x="51" y="192.5" width="100" height="20" as="geometry" />
        </mxCell>
        <mxCell id="UDn-PatQlqT6txf8OOJC-47" value="Output" style="text;html=1;strokeColor=none;fillColor=none;align=left;verticalAlign=middle;whiteSpace=wrap;rounded=0;" vertex="1" parent="UDn-PatQlqT6txf8OOJC-30">
          <mxGeometry x="41" y="330" width="100" height="20" as="geometry" />
        </mxCell>
        <mxCell id="UDn-PatQlqT6txf8OOJC-48" value="Hola" style="text;html=1;strokeColor=none;fillColor=none;align=left;verticalAlign=middle;whiteSpace=wrap;rounded=0;fontStyle=1;fontSize=23;" vertex="1" parent="UDn-PatQlqT6txf8OOJC-30">
          <mxGeometry x="41" y="360" width="100" height="20" as="geometry" />
        </mxCell>
      </root>
    </mxGraphModel>
  </diagram>
  <diagram id="h_jPB4pfSAWa_Zas18ly" name="02 - dropdown">
    <mxGraphModel dx="601" dy="296" grid="1" gridSize="10" guides="1" tooltips="1" connect="1" arrows="1" fold="1" page="1" pageScale="1" pageWidth="1920" pageHeight="1200" math="0" shadow="0">
      <root>
        <mxCell id="WkvRQ-xGLFp5gOxYWPQB-0" />
        <mxCell id="WkvRQ-xGLFp5gOxYWPQB-1" parent="WkvRQ-xGLFp5gOxYWPQB-0" />
        <mxCell id="WkvRQ-xGLFp5gOxYWPQB-2" value="&lt;br&gt;&lt;br&gt;&lt;b&gt;Dropdown&lt;/b&gt;" style="rounded=0;whiteSpace=wrap;html=1;shadow=1;fontSize=23;align=center;fillColor=#d5e8d4;strokeColor=#82b366;" vertex="1" parent="WkvRQ-xGLFp5gOxYWPQB-1">
          <mxGeometry x="650" y="390" width="190" height="90" as="geometry" />
        </mxCell>
        <mxCell id="WkvRQ-xGLFp5gOxYWPQB-3" style="edgeStyle=orthogonalEdgeStyle;rounded=0;orthogonalLoop=1;jettySize=auto;html=1;exitX=0.5;exitY=1;exitDx=0;exitDy=0;strokeWidth=1;fontSize=23;" edge="1" parent="WkvRQ-xGLFp5gOxYWPQB-1" source="WkvRQ-xGLFp5gOxYWPQB-4" target="WkvRQ-xGLFp5gOxYWPQB-2">
          <mxGeometry relative="1" as="geometry" />
        </mxCell>
        <mxCell id="WkvRQ-xGLFp5gOxYWPQB-4" value="App&lt;br&gt;&lt;br&gt;" style="rounded=0;whiteSpace=wrap;html=1;shadow=1;fontSize=23;align=center;fontStyle=1;fillColor=#e1d5e7;strokeColor=#9673a6;" vertex="1" parent="WkvRQ-xGLFp5gOxYWPQB-1">
          <mxGeometry x="650" y="220" width="190" height="80" as="geometry" />
        </mxCell>
        <mxCell id="WkvRQ-xGLFp5gOxYWPQB-5" value="options" style="rounded=0;whiteSpace=wrap;html=1;shadow=1;fontSize=15;align=center;fillColor=#dae8fc;strokeColor=#6c8ebf;" vertex="1" parent="WkvRQ-xGLFp5gOxYWPQB-1">
          <mxGeometry x="700" y="270" width="90" height="20" as="geometry" />
        </mxCell>
        <mxCell id="WkvRQ-xGLFp5gOxYWPQB-6" value="Props" style="rounded=0;whiteSpace=wrap;html=1;shadow=1;fontSize=18;align=center;fillColor=#fff2cc;strokeColor=#d6b656;fontStyle=2" vertex="1" parent="WkvRQ-xGLFp5gOxYWPQB-1">
          <mxGeometry x="440" y="190" width="90" height="30" as="geometry" />
        </mxCell>
        <mxCell id="3OmH0Z-6JY_RhWyVKY0m-0" value="options" style="rounded=0;whiteSpace=wrap;html=1;shadow=1;fontSize=15;align=center;fillColor=#dae8fc;strokeColor=#6c8ebf;" vertex="1" parent="WkvRQ-xGLFp5gOxYWPQB-1">
          <mxGeometry x="750" y="330" width="90" height="20" as="geometry" />
        </mxCell>
      </root>
    </mxGraphModel>
  </diagram>
  <diagram id="uDOAg4Nv-tCe3UnjMOXk" name="03 - props">
    <mxGraphModel dx="858" dy="422" grid="1" gridSize="10" guides="1" tooltips="1" connect="1" arrows="1" fold="1" page="1" pageScale="1" pageWidth="1920" pageHeight="1200" math="0" shadow="0">
      <root>
        <mxCell id="wo0kaCGErYO1T3pe5em0-0" />
        <mxCell id="wo0kaCGErYO1T3pe5em0-1" parent="wo0kaCGErYO1T3pe5em0-0" />
        <mxCell id="wo0kaCGErYO1T3pe5em0-2" value="" style="strokeWidth=1;shadow=0;dashed=0;align=center;html=1;shape=mxgraph.mockup.containers.browserWindow;rSize=0;strokeColor=#666666;strokeColor2=#008cff;strokeColor3=#c4c4c4;mainText=,;recursiveResize=0;" vertex="1" parent="wo0kaCGErYO1T3pe5em0-1">
          <mxGeometry x="720" y="130" width="550" height="380" as="geometry" />
        </mxCell>
        <mxCell id="wo0kaCGErYO1T3pe5em0-3" value="Page 1" style="strokeWidth=1;shadow=0;dashed=0;align=center;html=1;shape=mxgraph.mockup.containers.anchor;fontSize=17;fontColor=#666666;align=left;" vertex="1" parent="wo0kaCGErYO1T3pe5em0-2">
          <mxGeometry x="60" y="12" width="110" height="26" as="geometry" />
        </mxCell>
        <mxCell id="wo0kaCGErYO1T3pe5em0-4" value="" style="strokeWidth=1;shadow=0;dashed=0;align=center;html=1;shape=mxgraph.mockup.containers.anchor;rSize=0;fontSize=17;fontColor=#666666;align=left;" vertex="1" parent="wo0kaCGErYO1T3pe5em0-2">
          <mxGeometry x="130" y="60" width="250" height="26" as="geometry" />
        </mxCell>
        <mxCell id="bUayDbBW7fxV_-tUOE1P-0" value="" style="endArrow=none;html=1;" edge="1" parent="wo0kaCGErYO1T3pe5em0-2">
          <mxGeometry width="50" height="50" relative="1" as="geometry">
            <mxPoint x="10" y="150" as="sourcePoint" />
            <mxPoint x="540" y="150" as="targetPoint" />
          </mxGeometry>
        </mxCell>
        <mxCell id="bUayDbBW7fxV_-tUOE1P-1" value="Accordion" style="text;html=1;strokeColor=none;fillColor=none;align=center;verticalAlign=middle;whiteSpace=wrap;rounded=0;" vertex="1" parent="wo0kaCGErYO1T3pe5em0-2">
          <mxGeometry x="11" y="120" width="59" height="20" as="geometry" />
        </mxCell>
        <mxCell id="bUayDbBW7fxV_-tUOE1P-2" value="Dropdown" style="text;html=1;strokeColor=none;fillColor=none;align=center;verticalAlign=middle;whiteSpace=wrap;rounded=0;" vertex="1" parent="wo0kaCGErYO1T3pe5em0-2">
          <mxGeometry x="90" y="120" width="59" height="20" as="geometry" />
        </mxCell>
        <mxCell id="bUayDbBW7fxV_-tUOE1P-3" value="Translate" style="text;html=1;strokeColor=none;fillColor=none;align=center;verticalAlign=middle;whiteSpace=wrap;rounded=0;" vertex="1" parent="wo0kaCGErYO1T3pe5em0-2">
          <mxGeometry x="170" y="120" width="59" height="20" as="geometry" />
        </mxCell>
        <mxCell id="bUayDbBW7fxV_-tUOE1P-4" value="" style="rounded=0;whiteSpace=wrap;html=1;" vertex="1" parent="wo0kaCGErYO1T3pe5em0-2">
          <mxGeometry x="10" y="195" width="219" height="35" as="geometry" />
        </mxCell>
        <mxCell id="bUayDbBW7fxV_-tUOE1P-5" value="Select Color" style="text;html=1;strokeColor=none;fillColor=none;align=left;verticalAlign=middle;whiteSpace=wrap;rounded=0;" vertex="1" parent="wo0kaCGErYO1T3pe5em0-2">
          <mxGeometry x="10" y="170" width="100" height="20" as="geometry" />
        </mxCell>
        <mxCell id="bUayDbBW7fxV_-tUOE1P-6" value="" style="triangle;whiteSpace=wrap;html=1;align=left;rotation=90;" vertex="1" parent="wo0kaCGErYO1T3pe5em0-2">
          <mxGeometry x="200" y="202.5" width="20" height="20" as="geometry" />
        </mxCell>
        <mxCell id="bUayDbBW7fxV_-tUOE1P-7" value="Red" style="text;html=1;strokeColor=none;fillColor=none;align=left;verticalAlign=middle;whiteSpace=wrap;rounded=0;" vertex="1" parent="wo0kaCGErYO1T3pe5em0-2">
          <mxGeometry x="20" y="202.5" width="100" height="20" as="geometry" />
        </mxCell>
        <mxCell id="bUayDbBW7fxV_-tUOE1P-9" value="&amp;nbsp; &amp;nbsp;Green" style="rounded=0;whiteSpace=wrap;html=1;align=left;" vertex="1" parent="wo0kaCGErYO1T3pe5em0-2">
          <mxGeometry x="10" y="230" width="219" height="35" as="geometry" />
        </mxCell>
        <mxCell id="bUayDbBW7fxV_-tUOE1P-10" value="&amp;nbsp; &amp;nbsp;Blue" style="rounded=0;whiteSpace=wrap;html=1;align=left;" vertex="1" parent="wo0kaCGErYO1T3pe5em0-2">
          <mxGeometry x="10" y="265" width="219" height="35" as="geometry" />
        </mxCell>
        <mxCell id="wo0kaCGErYO1T3pe5em0-8" value="options" style="rounded=0;whiteSpace=wrap;html=1;shadow=1;fontSize=20;align=center;fillColor=#dae8fc;strokeColor=#6c8ebf;fontStyle=1" vertex="1" parent="wo0kaCGErYO1T3pe5em0-1">
          <mxGeometry x="420" y="210" width="240" height="30" as="geometry" />
        </mxCell>
        <mxCell id="wo0kaCGErYO1T3pe5em0-9" value="&lt;span style=&quot;font-weight: normal&quot;&gt;{ &lt;br&gt;&amp;nbsp; &lt;/span&gt;label&lt;span style=&quot;font-weight: normal&quot;&gt;: &#39;The Color Red,&lt;br&gt;&amp;nbsp; &lt;/span&gt;value&lt;span style=&quot;font-weight: normal&quot;&gt;: &#39;red&#39;&lt;br&gt;}&lt;br&gt;&lt;/span&gt;" style="rounded=0;whiteSpace=wrap;html=1;shadow=1;fontSize=15;align=left;fillColor=#dae8fc;strokeColor=#6c8ebf;fontStyle=1" vertex="1" parent="wo0kaCGErYO1T3pe5em0-1">
          <mxGeometry x="460" y="240" width="240" height="80" as="geometry" />
        </mxCell>
        <mxCell id="wo0kaCGErYO1T3pe5em0-10" value="&lt;span style=&quot;font-weight: normal&quot;&gt;{ &lt;br&gt;&amp;nbsp; &lt;/span&gt;label&lt;span style=&quot;font-weight: normal&quot;&gt;: &#39;The Color Green&#39;,&lt;br&gt;&amp;nbsp; &lt;/span&gt;value&lt;span style=&quot;font-weight: normal&quot;&gt;: &#39;green&#39;&lt;br&gt;}&lt;br&gt;&lt;/span&gt;" style="rounded=0;whiteSpace=wrap;html=1;shadow=1;fontSize=15;align=left;fillColor=#dae8fc;strokeColor=#6c8ebf;fontStyle=1" vertex="1" parent="wo0kaCGErYO1T3pe5em0-1">
          <mxGeometry x="440" y="320" width="240" height="80" as="geometry" />
        </mxCell>
        <mxCell id="wo0kaCGErYO1T3pe5em0-11" value="&lt;span style=&quot;font-weight: normal&quot;&gt;{ &lt;br&gt;&amp;nbsp; &lt;/span&gt;label&lt;span style=&quot;font-weight: normal&quot;&gt;: &#39;A Shade of Blue&#39;,&lt;br&gt;&amp;nbsp; &lt;/span&gt;value&lt;span style=&quot;font-weight: normal&quot;&gt;: &#39;blue&#39;&lt;br&gt;}&lt;br&gt;&lt;/span&gt;" style="rounded=0;whiteSpace=wrap;html=1;shadow=1;fontSize=15;align=left;fillColor=#dae8fc;strokeColor=#6c8ebf;fontStyle=1" vertex="1" parent="wo0kaCGErYO1T3pe5em0-1">
          <mxGeometry x="430" y="400" width="240" height="80" as="geometry" />
        </mxCell>
      </root>
    </mxGraphModel>
  </diagram>
  <diagram id="M8pf-K8y6sJjtCc2kcQZ" name="03 - state">
    <mxGraphModel dx="601" dy="296" grid="1" gridSize="10" guides="1" tooltips="1" connect="1" arrows="1" fold="1" page="1" pageScale="1" pageWidth="1920" pageHeight="1200" math="0" shadow="0">
      <root>
        <mxCell id="T3jlBPn0R9_xXKa8FIKj-0" />
        <mxCell id="T3jlBPn0R9_xXKa8FIKj-1" parent="T3jlBPn0R9_xXKa8FIKj-0" />
        <mxCell id="m2RovPDvPQs5Ryuln3Af-0" value="&lt;br&gt;&lt;br&gt;&lt;b&gt;Dropdown&lt;/b&gt;" style="rounded=0;whiteSpace=wrap;html=1;shadow=1;fontSize=23;align=center;fillColor=#d5e8d4;strokeColor=#82b366;" vertex="1" parent="T3jlBPn0R9_xXKa8FIKj-1">
          <mxGeometry x="650" y="390" width="190" height="90" as="geometry" />
        </mxCell>
        <mxCell id="m2RovPDvPQs5Ryuln3Af-1" style="edgeStyle=orthogonalEdgeStyle;rounded=0;orthogonalLoop=1;jettySize=auto;html=1;exitX=0.5;exitY=1;exitDx=0;exitDy=0;strokeWidth=1;fontSize=23;" edge="1" parent="T3jlBPn0R9_xXKa8FIKj-1" source="m2RovPDvPQs5Ryuln3Af-2" target="m2RovPDvPQs5Ryuln3Af-0">
          <mxGeometry relative="1" as="geometry" />
        </mxCell>
        <mxCell id="m2RovPDvPQs5Ryuln3Af-2" value="App&lt;br&gt;&lt;br&gt;" style="rounded=0;whiteSpace=wrap;html=1;shadow=1;fontSize=23;align=center;fontStyle=1;fillColor=#e1d5e7;strokeColor=#9673a6;" vertex="1" parent="T3jlBPn0R9_xXKa8FIKj-1">
          <mxGeometry x="650" y="220" width="190" height="80" as="geometry" />
        </mxCell>
        <mxCell id="m2RovPDvPQs5Ryuln3Af-4" value="State" style="rounded=0;whiteSpace=wrap;html=1;shadow=1;fontSize=18;align=center;fillColor=#fff2cc;strokeColor=#d6b656;fontStyle=2" vertex="1" parent="T3jlBPn0R9_xXKa8FIKj-1">
          <mxGeometry x="450" y="190" width="90" height="30" as="geometry" />
        </mxCell>
        <mxCell id="tvbgQMh-VoSUoO0kDFHu-0" value="selection" style="rounded=0;whiteSpace=wrap;html=1;shadow=1;fontSize=15;align=center;fillColor=#dae8fc;strokeColor=#6c8ebf;" vertex="1" parent="T3jlBPn0R9_xXKa8FIKj-1">
          <mxGeometry x="655" y="270" width="90" height="20" as="geometry" />
        </mxCell>
        <mxCell id="mUjlp1Bv9uydzEfDZMdT-0" value="selection" style="rounded=0;whiteSpace=wrap;html=1;shadow=1;fontSize=15;align=center;fillColor=#dae8fc;strokeColor=#6c8ebf;" vertex="1" parent="T3jlBPn0R9_xXKa8FIKj-1">
          <mxGeometry x="655" y="330" width="90" height="20" as="geometry" />
        </mxCell>
        <mxCell id="gL6qwkpC2yleFNnzmbYP-4" value="{ label: &#39;red&#39;, value: &#39;red&#39; }" style="rounded=0;whiteSpace=wrap;html=1;shadow=1;fontSize=15;align=center;fillColor=#dae8fc;strokeColor=#6c8ebf;" vertex="1" parent="T3jlBPn0R9_xXKa8FIKj-1">
          <mxGeometry x="680" y="400" width="130" height="40" as="geometry" />
        </mxCell>
      </root>
    </mxGraphModel>
  </diagram>
  <diagram id="TmX7Goqb0w_JqNsDFwR-" name="05 - ref">
    <mxGraphModel dx="733" dy="360" grid="1" gridSize="10" guides="1" tooltips="1" connect="1" arrows="1" fold="1" page="1" pageScale="1" pageWidth="1920" pageHeight="1200" math="0" shadow="0">
      <root>
        <mxCell id="l5TD7c9TbBMUSaN7oBGO-0" />
        <mxCell id="l5TD7c9TbBMUSaN7oBGO-1" parent="l5TD7c9TbBMUSaN7oBGO-0" />
        <mxCell id="l5TD7c9TbBMUSaN7oBGO-2" value="&amp;nbsp;html" style="rounded=0;whiteSpace=wrap;html=1;fontSize=23;fontColor=#000000;align=left;" vertex="1" parent="l5TD7c9TbBMUSaN7oBGO-1">
          <mxGeometry x="440" y="140" width="260" height="60" as="geometry" />
        </mxCell>
        <mxCell id="l5TD7c9TbBMUSaN7oBGO-3" value="&amp;nbsp;body" style="rounded=0;whiteSpace=wrap;html=1;fontSize=23;fontColor=#000000;align=left;" vertex="1" parent="l5TD7c9TbBMUSaN7oBGO-1">
          <mxGeometry x="460" y="200" width="260" height="60" as="geometry" />
        </mxCell>
        <mxCell id="l5TD7c9TbBMUSaN7oBGO-5" value="&amp;nbsp;div" style="rounded=0;whiteSpace=wrap;html=1;fontSize=23;fontColor=#000000;align=left;" vertex="1" parent="l5TD7c9TbBMUSaN7oBGO-1">
          <mxGeometry x="490" y="260" width="260" height="60" as="geometry" />
        </mxCell>
        <mxCell id="l5TD7c9TbBMUSaN7oBGO-6" value="&amp;nbsp;Dropdown" style="rounded=0;whiteSpace=wrap;html=1;fontSize=23;fontColor=#000000;align=left;" vertex="1" parent="l5TD7c9TbBMUSaN7oBGO-1">
          <mxGeometry x="520" y="320" width="260" height="60" as="geometry" />
        </mxCell>
        <mxCell id="l5TD7c9TbBMUSaN7oBGO-7" value="&amp;nbsp;div.ui.form" style="rounded=0;whiteSpace=wrap;html=1;fontSize=23;fontColor=#000000;align=left;" vertex="1" parent="l5TD7c9TbBMUSaN7oBGO-1">
          <mxGeometry x="540" y="380" width="260" height="60" as="geometry" />
        </mxCell>
        <mxCell id="l5TD7c9TbBMUSaN7oBGO-8" value="&amp;nbsp;div.ui.selection" style="rounded=0;whiteSpace=wrap;html=1;fontSize=23;fontColor=#000000;align=left;" vertex="1" parent="l5TD7c9TbBMUSaN7oBGO-1">
          <mxGeometry x="560" y="440" width="260" height="60" as="geometry" />
        </mxCell>
      </root>
    </mxGraphModel>
  </diagram>
  <diagram name="06 - ref" id="zz_Ka2PePQTm312L-94T">
    <mxGraphModel dx="770" dy="379" grid="1" gridSize="10" guides="1" tooltips="1" connect="1" arrows="1" fold="1" page="1" pageScale="1" pageWidth="1920" pageHeight="1200" math="0" shadow="0">
      <root>
        <mxCell id="YPQyTHNSfD8Q9DfAZzBo-0" />
        <mxCell id="YPQyTHNSfD8Q9DfAZzBo-1" parent="YPQyTHNSfD8Q9DfAZzBo-0" />
        <mxCell id="YPQyTHNSfD8Q9DfAZzBo-2" value="&amp;nbsp;html" style="rounded=0;whiteSpace=wrap;html=1;fontSize=23;fontColor=#000000;align=left;" vertex="1" parent="YPQyTHNSfD8Q9DfAZzBo-1">
          <mxGeometry x="440" y="140" width="260" height="60" as="geometry" />
        </mxCell>
        <mxCell id="YPQyTHNSfD8Q9DfAZzBo-3" value="&amp;nbsp;body" style="rounded=0;whiteSpace=wrap;html=1;fontSize=23;fontColor=#000000;align=left;" vertex="1" parent="YPQyTHNSfD8Q9DfAZzBo-1">
          <mxGeometry x="460" y="200" width="260" height="60" as="geometry" />
        </mxCell>
        <mxCell id="YPQyTHNSfD8Q9DfAZzBo-4" value="&amp;nbsp;div" style="rounded=0;whiteSpace=wrap;html=1;fontSize=23;fontColor=#000000;align=left;" vertex="1" parent="YPQyTHNSfD8Q9DfAZzBo-1">
          <mxGeometry x="490" y="260" width="260" height="60" as="geometry" />
        </mxCell>
        <mxCell id="YPQyTHNSfD8Q9DfAZzBo-9" style="edgeStyle=orthogonalEdgeStyle;rounded=0;orthogonalLoop=1;jettySize=auto;html=1;exitX=1;exitY=0.5;exitDx=0;exitDy=0;entryX=0.1;entryY=0.5;entryDx=0;entryDy=0;entryPerimeter=0;fontSize=23;fontColor=#000000;strokeWidth=3;" edge="1" parent="YPQyTHNSfD8Q9DfAZzBo-1" source="YPQyTHNSfD8Q9DfAZzBo-5" target="YPQyTHNSfD8Q9DfAZzBo-8">
          <mxGeometry relative="1" as="geometry">
            <Array as="points">
              <mxPoint x="900" y="350" />
              <mxPoint x="900" y="440" />
            </Array>
          </mxGeometry>
        </mxCell>
        <mxCell id="YPQyTHNSfD8Q9DfAZzBo-5" value="&amp;nbsp;Dropdown" style="rounded=0;whiteSpace=wrap;html=1;fontSize=23;align=left;fillColor=#dae8fc;strokeColor=#6c8ebf;" vertex="1" parent="YPQyTHNSfD8Q9DfAZzBo-1">
          <mxGeometry x="520" y="320" width="260" height="60" as="geometry" />
        </mxCell>
        <mxCell id="YPQyTHNSfD8Q9DfAZzBo-6" value="&amp;nbsp;div.ui.form" style="rounded=0;whiteSpace=wrap;html=1;fontSize=23;fontColor=#000000;align=left;" vertex="1" parent="YPQyTHNSfD8Q9DfAZzBo-1">
          <mxGeometry x="540" y="380" width="260" height="60" as="geometry" />
        </mxCell>
        <mxCell id="YPQyTHNSfD8Q9DfAZzBo-7" value="&amp;nbsp;div.ui.selection" style="rounded=0;whiteSpace=wrap;html=1;fontSize=23;fontColor=#000000;align=left;" vertex="1" parent="YPQyTHNSfD8Q9DfAZzBo-1">
          <mxGeometry x="560" y="440" width="260" height="60" as="geometry" />
        </mxCell>
        <mxCell id="YPQyTHNSfD8Q9DfAZzBo-8" value="" style="shape=curlyBracket;whiteSpace=wrap;html=1;rounded=1;fontSize=23;fontColor=#000000;align=left;rotation=-180;strokeWidth=3;" vertex="1" parent="YPQyTHNSfD8Q9DfAZzBo-1">
          <mxGeometry x="830" y="380" width="30" height="120" as="geometry" />
        </mxCell>
        <mxCell id="YPQyTHNSfD8Q9DfAZzBo-10" value="Components can only easily set up event listeners on elements they render &lt;i&gt;using React&#39;s event system&lt;/i&gt;" style="text;html=1;strokeColor=none;fillColor=none;align=left;verticalAlign=middle;whiteSpace=wrap;rounded=0;fontSize=23;fontColor=#000000;" vertex="1" parent="YPQyTHNSfD8Q9DfAZzBo-1">
          <mxGeometry x="910" y="340" width="290" height="110" as="geometry" />
        </mxCell>
      </root>
    </mxGraphModel>
  </diagram>
  <diagram name="07 - ref" id="BcsLy_chhcEwp9WALRRN">
    <mxGraphModel dx="733" dy="360" grid="1" gridSize="10" guides="1" tooltips="1" connect="1" arrows="1" fold="1" page="1" pageScale="1" pageWidth="1920" pageHeight="1200" math="0" shadow="0">
      <root>
        <mxCell id="-UZdyF6D8a7S7h3fQgX2-0" />
        <mxCell id="-UZdyF6D8a7S7h3fQgX2-1" parent="-UZdyF6D8a7S7h3fQgX2-0" />
        <mxCell id="-UZdyF6D8a7S7h3fQgX2-2" value="&amp;nbsp;html" style="rounded=0;whiteSpace=wrap;html=1;fontSize=23;fontColor=#000000;align=left;" vertex="1" parent="-UZdyF6D8a7S7h3fQgX2-1">
          <mxGeometry x="440" y="140" width="260" height="60" as="geometry" />
        </mxCell>
        <mxCell id="-UZdyF6D8a7S7h3fQgX2-3" value="&amp;nbsp;body" style="rounded=0;whiteSpace=wrap;html=1;fontSize=23;fontColor=#000000;align=left;" vertex="1" parent="-UZdyF6D8a7S7h3fQgX2-1">
          <mxGeometry x="460" y="200" width="260" height="60" as="geometry" />
        </mxCell>
        <mxCell id="-UZdyF6D8a7S7h3fQgX2-4" value="&amp;nbsp;div" style="rounded=0;whiteSpace=wrap;html=1;fontSize=23;fontColor=#000000;align=left;" vertex="1" parent="-UZdyF6D8a7S7h3fQgX2-1">
          <mxGeometry x="490" y="260" width="260" height="60" as="geometry" />
        </mxCell>
        <mxCell id="-UZdyF6D8a7S7h3fQgX2-5" style="edgeStyle=orthogonalEdgeStyle;rounded=0;orthogonalLoop=1;jettySize=auto;html=1;exitX=1;exitY=0.5;exitDx=0;exitDy=0;entryX=1;entryY=0.5;entryDx=0;entryDy=0;fontSize=23;fontColor=#000000;strokeWidth=3;" edge="1" parent="-UZdyF6D8a7S7h3fQgX2-1" source="-UZdyF6D8a7S7h3fQgX2-6" target="-UZdyF6D8a7S7h3fQgX2-8">
          <mxGeometry relative="1" as="geometry">
            <mxPoint x="857" y="440" as="targetPoint" />
            <Array as="points">
              <mxPoint x="900" y="350" />
              <mxPoint x="900" y="470" />
            </Array>
          </mxGeometry>
        </mxCell>
        <mxCell id="-UZdyF6D8a7S7h3fQgX2-6" value="&amp;nbsp;Dropdown" style="rounded=0;whiteSpace=wrap;html=1;fontSize=23;align=left;fillColor=#dae8fc;strokeColor=#6c8ebf;" vertex="1" parent="-UZdyF6D8a7S7h3fQgX2-1">
          <mxGeometry x="520" y="320" width="260" height="60" as="geometry" />
        </mxCell>
        <mxCell id="-UZdyF6D8a7S7h3fQgX2-7" value="&amp;nbsp;div.ui.form" style="rounded=0;whiteSpace=wrap;html=1;fontSize=23;fontColor=#000000;align=left;" vertex="1" parent="-UZdyF6D8a7S7h3fQgX2-1">
          <mxGeometry x="540" y="380" width="260" height="60" as="geometry" />
        </mxCell>
        <mxCell id="-UZdyF6D8a7S7h3fQgX2-8" value="&amp;nbsp;div.ui.selection" style="rounded=0;whiteSpace=wrap;html=1;fontSize=23;fontColor=#000000;align=left;" vertex="1" parent="-UZdyF6D8a7S7h3fQgX2-1">
          <mxGeometry x="560" y="440" width="260" height="60" as="geometry" />
        </mxCell>
        <mxCell id="-UZdyF6D8a7S7h3fQgX2-10" value="We need to get a &lt;i&gt;reference &lt;/i&gt;to this DOM element" style="text;html=1;strokeColor=none;fillColor=none;align=left;verticalAlign=middle;whiteSpace=wrap;rounded=0;fontSize=23;fontColor=#000000;" vertex="1" parent="-UZdyF6D8a7S7h3fQgX2-1">
          <mxGeometry x="910" y="355" width="230" height="110" as="geometry" />
        </mxCell>
      </root>
    </mxGraphModel>
  </diagram>
  <diagram name="08 - ref" id="EPKN-AKdbWymYGHYKtZS">
    <mxGraphModel dx="733" dy="360" grid="1" gridSize="10" guides="1" tooltips="1" connect="1" arrows="1" fold="1" page="1" pageScale="1" pageWidth="1920" pageHeight="1200" math="0" shadow="0">
      <root>
        <mxCell id="GRejngEOhXZYQdASB5HO-0" />
        <mxCell id="GRejngEOhXZYQdASB5HO-1" parent="GRejngEOhXZYQdASB5HO-0" />
        <mxCell id="GRejngEOhXZYQdASB5HO-2" value="&amp;nbsp;html" style="rounded=0;whiteSpace=wrap;html=1;fontSize=23;fontColor=#000000;align=left;" vertex="1" parent="GRejngEOhXZYQdASB5HO-1">
          <mxGeometry x="440" y="140" width="260" height="60" as="geometry" />
        </mxCell>
        <mxCell id="GRejngEOhXZYQdASB5HO-3" value="&amp;nbsp;body" style="rounded=0;whiteSpace=wrap;html=1;fontSize=23;fontColor=#000000;align=left;" vertex="1" parent="GRejngEOhXZYQdASB5HO-1">
          <mxGeometry x="460" y="200" width="260" height="60" as="geometry" />
        </mxCell>
        <mxCell id="GRejngEOhXZYQdASB5HO-4" value="&amp;nbsp;div" style="rounded=0;whiteSpace=wrap;html=1;fontSize=23;fontColor=#000000;align=left;" vertex="1" parent="GRejngEOhXZYQdASB5HO-1">
          <mxGeometry x="490" y="260" width="260" height="60" as="geometry" />
        </mxCell>
        <mxCell id="GRejngEOhXZYQdASB5HO-10" style="edgeStyle=orthogonalEdgeStyle;rounded=0;orthogonalLoop=1;jettySize=auto;html=1;exitX=1;exitY=0.5;exitDx=0;exitDy=0;entryX=1;entryY=0.5;entryDx=0;entryDy=0;strokeWidth=3;fontSize=23;fontColor=#000000;" edge="1" parent="GRejngEOhXZYQdASB5HO-1" source="GRejngEOhXZYQdASB5HO-6" target="GRejngEOhXZYQdASB5HO-3">
          <mxGeometry relative="1" as="geometry">
            <Array as="points">
              <mxPoint x="870" y="350" />
              <mxPoint x="870" y="230" />
            </Array>
          </mxGeometry>
        </mxCell>
        <mxCell id="GRejngEOhXZYQdASB5HO-6" value="&amp;nbsp;Dropdown" style="rounded=0;whiteSpace=wrap;html=1;fontSize=23;align=left;fillColor=#dae8fc;strokeColor=#6c8ebf;" vertex="1" parent="GRejngEOhXZYQdASB5HO-1">
          <mxGeometry x="520" y="320" width="260" height="60" as="geometry" />
        </mxCell>
        <mxCell id="GRejngEOhXZYQdASB5HO-7" value="&amp;nbsp;div.ui.form" style="rounded=0;whiteSpace=wrap;html=1;fontSize=23;fontColor=#000000;align=left;" vertex="1" parent="GRejngEOhXZYQdASB5HO-1">
          <mxGeometry x="540" y="380" width="260" height="60" as="geometry" />
        </mxCell>
        <mxCell id="GRejngEOhXZYQdASB5HO-8" value="&amp;nbsp;div.ui.selection" style="rounded=0;whiteSpace=wrap;html=1;fontSize=23;fontColor=#000000;align=left;" vertex="1" parent="GRejngEOhXZYQdASB5HO-1">
          <mxGeometry x="560" y="440" width="260" height="60" as="geometry" />
        </mxCell>
        <mxCell id="GRejngEOhXZYQdASB5HO-9" value="We then need to set up a&lt;i&gt;&amp;nbsp;manual&lt;/i&gt; event listener (no React) on the body element to listen for clicks" style="text;html=1;strokeColor=none;fillColor=none;align=left;verticalAlign=middle;whiteSpace=wrap;rounded=0;fontSize=23;fontColor=#000000;" vertex="1" parent="GRejngEOhXZYQdASB5HO-1">
          <mxGeometry x="880" y="235" width="230" height="110" as="geometry" />
        </mxCell>
      </root>
    </mxGraphModel>
  </diagram>
  <diagram name="09 - ref" id="OLLfgpFwVJ0w_29y0zIh">
    <mxGraphModel dx="733" dy="360" grid="1" gridSize="10" guides="1" tooltips="1" connect="1" arrows="1" fold="1" page="1" pageScale="1" pageWidth="1920" pageHeight="1200" math="0" shadow="0">
      <root>
        <mxCell id="pNcgm-Vk2IAudoaA6EsM-0" />
        <mxCell id="pNcgm-Vk2IAudoaA6EsM-1" parent="pNcgm-Vk2IAudoaA6EsM-0" />
        <mxCell id="pNcgm-Vk2IAudoaA6EsM-2" value="&amp;nbsp;html" style="rounded=0;whiteSpace=wrap;html=1;fontSize=23;fontColor=#000000;align=left;" vertex="1" parent="pNcgm-Vk2IAudoaA6EsM-1">
          <mxGeometry x="440" y="140" width="260" height="60" as="geometry" />
        </mxCell>
        <mxCell id="pNcgm-Vk2IAudoaA6EsM-3" value="&amp;nbsp;body" style="rounded=0;whiteSpace=wrap;html=1;fontSize=23;fontColor=#000000;align=left;" vertex="1" parent="pNcgm-Vk2IAudoaA6EsM-1">
          <mxGeometry x="460" y="200" width="260" height="60" as="geometry" />
        </mxCell>
        <mxCell id="pNcgm-Vk2IAudoaA6EsM-4" value="&amp;nbsp;div" style="rounded=0;whiteSpace=wrap;html=1;fontSize=23;fontColor=#000000;align=left;" vertex="1" parent="pNcgm-Vk2IAudoaA6EsM-1">
          <mxGeometry x="490" y="260" width="260" height="60" as="geometry" />
        </mxCell>
        <mxCell id="pNcgm-Vk2IAudoaA6EsM-5" style="edgeStyle=orthogonalEdgeStyle;rounded=0;orthogonalLoop=1;jettySize=auto;html=1;exitX=1;exitY=0.5;exitDx=0;exitDy=0;entryX=1;entryY=0.5;entryDx=0;entryDy=0;strokeWidth=3;fontSize=23;fontColor=#000000;" edge="1" parent="pNcgm-Vk2IAudoaA6EsM-1" source="pNcgm-Vk2IAudoaA6EsM-6" target="pNcgm-Vk2IAudoaA6EsM-3">
          <mxGeometry relative="1" as="geometry">
            <Array as="points">
              <mxPoint x="870" y="350" />
              <mxPoint x="870" y="230" />
            </Array>
          </mxGeometry>
        </mxCell>
        <mxCell id="pNcgm-Vk2IAudoaA6EsM-6" value="&amp;nbsp;Dropdown" style="rounded=0;whiteSpace=wrap;html=1;fontSize=23;align=left;fillColor=#dae8fc;strokeColor=#6c8ebf;" vertex="1" parent="pNcgm-Vk2IAudoaA6EsM-1">
          <mxGeometry x="520" y="320" width="260" height="60" as="geometry" />
        </mxCell>
        <mxCell id="pNcgm-Vk2IAudoaA6EsM-7" value="&amp;nbsp;div.ui.form" style="rounded=0;whiteSpace=wrap;html=1;fontSize=23;fontColor=#000000;align=left;" vertex="1" parent="pNcgm-Vk2IAudoaA6EsM-1">
          <mxGeometry x="540" y="380" width="260" height="60" as="geometry" />
        </mxCell>
        <mxCell id="pNcgm-Vk2IAudoaA6EsM-8" value="&amp;nbsp;div.ui.selection" style="rounded=0;whiteSpace=wrap;html=1;fontSize=23;fontColor=#000000;align=left;" vertex="1" parent="pNcgm-Vk2IAudoaA6EsM-1">
          <mxGeometry x="560" y="440" width="260" height="60" as="geometry" />
        </mxCell>
        <mxCell id="pNcgm-Vk2IAudoaA6EsM-9" value="Whenever the body is clicked,&amp;nbsp;" style="text;html=1;strokeColor=none;fillColor=none;align=left;verticalAlign=middle;whiteSpace=wrap;rounded=0;fontSize=23;fontColor=#000000;" vertex="1" parent="pNcgm-Vk2IAudoaA6EsM-1">
          <mxGeometry x="880" y="235" width="230" height="110" as="geometry" />
        </mxCell>
      </root>
    </mxGraphModel>
  </diagram>
</mxfile>
